<?xml version="1.0" encoding="utf-8" standalone="no"?>
<!DOCTYPE svg PUBLIC "-//W3C//DTD SVG 1.1//EN"
  "http://www.w3.org/Graphics/SVG/1.1/DTD/svg11.dtd">
<svg xmlns:xlink="http://www.w3.org/1999/xlink" width="604.8pt" height="288pt" viewBox="0 0 604.8 288" xmlns="http://www.w3.org/2000/svg" version="1.1">
 <metadata>
  <rdf:RDF xmlns:dc="http://purl.org/dc/elements/1.1/" xmlns:cc="http://creativecommons.org/ns#" xmlns:rdf="http://www.w3.org/1999/02/22-rdf-syntax-ns#">
   <cc:Work>
    <dc:type rdf:resource="http://purl.org/dc/dcmitype/StillImage"/>
    <dc:format>image/svg+xml</dc:format>
    <dc:creator>
     <cc:Agent>
      <dc:title>Matplotlib v3.11.2, https://matplotlib.org/</dc:title>
     </cc:Agent>
    </dc:creator>
   </cc:Work>
  </rdf:RDF>
 </metadata>
 <defs>
  <style type="text/css">*{stroke-linejoin: round; stroke-linecap: butt}</style>
 </defs>
 <g id="figure_1">
  <g id="patch_1">
   <path d="M 0 288
L 604.8 288
L 604.8 0
L 0 0
z
" style="fill: #131d2e"/>
  </g>
  <g id="axes_1">
   <g id="patch_2">
    <path d="M 60.48 230.4
L 586.656 230.4
L 586.656 48.96
L 60.48 48.96
z
" style="fill: #131d2e"/>
   </g>
   <g id="FillBetweenPolyCollection_1">
    <defs>
     <path id="m7cdeec19af" d="M 60.48 -86.061176
L 60.48 -87.637872
L 61.798737 -87.735284
L 63.117474 -87.838001
L 64.436211 -87.946262
L 65.754947 -88.060315
L 67.073684 -88.180417
L 68.392421 -88.306831
L 69.711158 -88.43983
L 71.029895 -88.579692
L 72.348632 -88.726707
L 73.667368 -88.88117
L 74.986105 -89.043384
L 76.304842 -89.213661
L 77.623579 -89.392322
L 78.942316 -89.579693
L 80.261053 -89.77611
L 81.579789 -89.981915
L 82.898526 -90.197459
L 84.217263 -90.423098
L 85.536 -90.659197
L 86.854737 -90.906127
L 88.173474 -91.164267
L 89.492211 -91.434
L 90.810947 -91.715716
L 92.129684 -92.009812
L 93.448421 -92.316689
L 94.767158 -92.636753
L 96.085895 -92.970415
L 97.404632 -93.31809
L 98.723368 -93.680197
L 100.042105 -94.057157
L 101.360842 -94.449394
L 102.679579 -94.857336
L 103.998316 -95.28141
L 105.317053 -95.722044
L 106.635789 -96.179668
L 107.954526 -96.654709
L 109.273263 -97.147595
L 110.592 -97.65875
L 111.910737 -98.188596
L 113.229474 -98.737552
L 114.548211 -99.306031
L 115.866947 -99.894441
L 117.185684 -100.503185
L 118.504421 -101.132658
L 119.823158 -101.783245
L 121.141895 -102.455323
L 122.460632 -103.149261
L 123.779368 -103.865413
L 125.098105 -104.604122
L 126.416842 -105.365719
L 127.735579 -106.150519
L 129.054316 -106.95882
L 130.373053 -107.790907
L 131.691789 -108.647044
L 133.010526 -109.527476
L 134.329263 -110.43243
L 135.648 -111.362109
L 136.966737 -112.316695
L 138.285474 -113.296346
L 139.604211 -114.301195
L 140.922947 -115.331348
L 142.241684 -116.386887
L 143.560421 -117.467862
L 144.879158 -118.574296
L 146.197895 -119.706181
L 147.516632 -120.863476
L 148.835368 -122.04611
L 150.154105 -123.253977
L 151.472842 -124.486936
L 152.791579 -125.744813
L 154.110316 -127.027394
L 155.429053 -128.334431
L 156.747789 -129.665636
L 158.066526 -131.020684
L 159.385263 -132.39921
L 160.704 -133.800807
L 162.022737 -135.225031
L 163.341474 -136.671393
L 164.660211 -138.139367
L 165.978947 -139.628382
L 167.297684 -141.137824
L 168.616421 -142.66704
L 169.935158 -144.215331
L 171.253895 -145.781959
L 172.572632 -147.36614
L 173.891368 -148.96705
L 175.210105 -150.583823
L 176.528842 -152.215549
L 177.847579 -153.861278
L 179.166316 -155.52002
L 180.485053 -157.190743
L 181.803789 -158.872376
L 183.122526 -160.563809
L 184.441263 -162.263895
L 185.76 -163.971448
L 187.078737 -165.685248
L 188.397474 -167.40404
L 189.716211 -169.126535
L 191.034947 -170.851411
L 192.353684 -172.577318
L 193.672421 -174.302875
L 194.991158 -176.026674
L 196.309895 -177.747282
L 197.628632 -179.46324
L 198.947368 -181.173071
L 200.266105 -182.875274
L 201.584842 -184.568332
L 202.903579 -186.250713
L 204.222316 -187.92087
L 205.541053 -189.577247
L 206.859789 -191.218275
L 208.178526 -192.842384
L 209.497263 -194.447995
L 210.816 -196.03353
L 212.134737 -197.597411
L 213.453474 -199.138065
L 214.772211 -200.653924
L 216.090947 -202.143429
L 217.409684 -203.605031
L 218.728421 -205.037198
L 220.047158 -206.438412
L 221.365895 -207.807176
L 222.684632 -209.142014
L 224.003368 -210.441476
L 225.322105 -211.704138
L 226.640842 -212.928605
L 227.959579 -214.113518
L 229.278316 -215.257549
L 230.597053 -216.35941
L 231.915789 -217.41785
L 233.234526 -218.431665
L 234.553263 -219.39969
L 235.872 -220.320809
L 237.190737 -221.193957
L 238.509474 -222.018117
L 239.828211 -222.792325
L 241.146947 -223.515673
L 242.465684 -224.187308
L 243.784421 -224.806438
L 245.103158 -225.372327
L 246.421895 -225.884303
L 247.740632 -226.341756
L 249.059368 -226.744138
L 250.378105 -227.090968
L 251.696842 -227.38183
L 253.015579 -227.616373
L 254.334316 -227.794317
L 255.653053 -227.915447
L 256.971789 -227.979616
L 258.290526 -227.986748
L 259.609263 -227.936833
L 260.928 -227.829933
L 262.246737 -227.666175
L 263.565474 -227.445758
L 264.884211 -227.168945
L 266.202947 -226.836071
L 267.521684 -226.447534
L 268.840421 -226.003801
L 270.159158 -225.505401
L 271.477895 -224.952929
L 272.796632 -224.347043
L 274.115368 -223.688462
L 275.434105 -222.977964
L 276.752842 -222.216388
L 278.071579 -221.404628
L 279.390316 -220.543634
L 280.709053 -219.634409
L 282.027789 -218.678008
L 283.346526 -217.675534
L 284.665263 -216.628138
L 285.984 -215.537017
L 287.302737 -214.403409
L 288.621474 -213.228594
L 289.940211 -212.013889
L 291.258947 -210.760646
L 292.577684 -209.470252
L 293.896421 -208.144123
L 295.215158 -206.783703
L 296.533895 -205.390462
L 297.852632 -203.965892
L 299.171368 -202.511505
L 300.490105 -201.028832
L 301.808842 -199.519416
L 303.127579 -197.984814
L 304.446316 -196.426592
L 305.765053 -194.846322
L 307.083789 -193.245582
L 308.402526 -191.62595
L 309.721263 -189.989004
L 311.04 -188.336317
L 312.358737 -186.669459
L 313.677474 -184.989988
L 314.996211 -183.299455
L 316.314947 -181.599395
L 317.633684 -179.891331
L 318.952421 -178.176765
L 320.271158 -176.457182
L 321.589895 -174.734046
L 322.908632 -173.008795
L 324.227368 -171.282845
L 325.546105 -169.557583
L 326.864842 -167.834368
L 328.183579 -166.114528
L 329.502316 -164.399361
L 330.821053 -162.69013
L 332.139789 -160.988065
L 333.458526 -159.29436
L 334.777263 -157.610171
L 336.096 -155.936619
L 337.414737 -154.274783
L 338.733474 -152.625706
L 340.052211 -150.990389
L 341.370947 -149.369791
L 342.689684 -147.764832
L 344.008421 -146.17639
L 345.327158 -144.605299
L 346.645895 -143.052352
L 347.964632 -141.518301
L 349.283368 -140.003852
L 350.602105 -138.509671
L 351.920842 -137.036382
L 353.239579 -135.584566
L 354.558316 -134.15476
L 355.877053 -132.747463
L 357.195789 -131.36313
L 358.514526 -130.002177
L 359.833263 -128.664979
L 361.152 -127.351871
L 362.470737 -126.063151
L 363.789474 -124.799077
L 365.108211 -123.559871
L 366.426947 -122.345716
L 367.745684 -121.156763
L 369.064421 -119.993124
L 370.383158 -118.854882
L 371.701895 -117.742084
L 373.020632 -116.654745
L 374.339368 -115.592851
L 375.658105 -114.556357
L 376.976842 -113.545191
L 378.295579 -112.559252
L 379.614316 -111.598414
L 380.933053 -110.662524
L 382.251789 -109.751407
L 383.570526 -108.864865
L 384.889263 -108.002677
L 386.208 -107.164601
L 387.526737 -106.350379
L 388.845474 -105.559732
L 390.164211 -104.792363
L 391.482947 -104.047962
L 392.801684 -103.326203
L 394.120421 -102.626744
L 395.439158 -101.949235
L 396.757895 -101.29331
L 398.076632 -100.658595
L 399.395368 -100.044706
L 400.714105 -99.451249
L 402.032842 -98.877825
L 403.351579 -98.324027
L 404.670316 -97.789443
L 405.989053 -97.273654
L 407.307789 -96.776241
L 408.626526 -96.296779
L 409.945263 -95.834841
L 411.264 -95.389999
L 412.582737 -94.961825
L 413.901474 -94.549891
L 415.220211 -94.153767
L 416.538947 -93.773028
L 417.857684 -93.407247
L 419.176421 -93.056004
L 420.495158 -92.718878
L 421.813895 -92.395453
L 423.132632 -92.085317
L 424.451368 -91.788064
L 425.770105 -91.50329
L 427.088842 -91.230598
L 428.407579 -90.969596
L 429.726316 -90.719899
L 431.045053 -90.481127
L 432.363789 -90.252908
L 433.682526 -90.034874
L 435.001263 -89.826668
L 436.32 -89.627936
L 437.638737 -89.438335
L 438.957474 -89.257528
L 440.276211 -89.085185
L 441.594947 -88.920984
L 442.913684 -88.764613
L 444.232421 -88.615764
L 445.551158 -88.474141
L 446.869895 -88.339453
L 448.188632 -88.211418
L 449.507368 -88.089764
L 450.826105 -87.974222
L 452.144842 -87.864537
L 453.463579 -87.760457
L 454.782316 -87.66174
L 456.101053 -87.568153
L 457.419789 -87.479467
L 458.738526 -87.395464
L 460.057263 -87.315932
L 461.376 -87.240666
L 462.694737 -87.169469
L 464.013474 -87.102151
L 465.332211 -87.03853
L 466.650947 -86.978427
L 467.969684 -86.921675
L 469.288421 -86.86811
L 470.607158 -86.817575
L 471.925895 -86.76992
L 473.244632 -86.725
L 474.563368 -86.682677
L 475.882105 -86.642819
L 477.200842 -86.605298
L 478.519579 -86.569993
L 479.838316 -86.536788
L 481.157053 -86.505571
L 482.475789 -86.476236
L 483.794526 -86.448681
L 485.113263 -86.422811
L 486.432 -86.398532
L 487.750737 -86.375756
L 489.069474 -86.3544
L 490.388211 -86.334384
L 491.706947 -86.315632
L 493.025684 -86.298072
L 494.344421 -86.281635
L 495.663158 -86.266257
L 496.981895 -86.251874
L 498.300632 -86.238428
L 499.619368 -86.225865
L 500.938105 -86.21413
L 502.256842 -86.203175
L 503.575579 -86.192951
L 504.894316 -86.183414
L 506.213053 -86.174522
L 507.531789 -86.166234
L 508.850526 -86.158513
L 510.169263 -86.151324
L 511.488 -86.144632
L 512.806737 -86.138405
L 514.125474 -86.132615
L 515.444211 -86.127232
L 516.762947 -86.12223
L 518.081684 -86.117584
L 519.400421 -86.113271
L 520.719158 -86.109268
L 522.037895 -86.105555
L 523.356632 -86.102112
L 524.675368 -86.098921
L 525.994105 -86.095965
L 527.312842 -86.093228
L 528.631579 -86.090694
L 529.950316 -86.088349
L 531.269053 -86.086181
L 532.587789 -86.084176
L 533.906526 -86.082324
L 535.225263 -86.080613
L 536.544 -86.079033
L 537.862737 -86.077575
L 539.181474 -86.07623
L 540.500211 -86.07499
L 541.818947 -86.073847
L 543.137684 -86.072793
L 544.456421 -86.071823
L 545.775158 -86.070931
L 547.093895 -86.070109
L 548.412632 -86.069353
L 549.731368 -86.068659
L 551.050105 -86.06802
L 552.368842 -86.067434
L 553.687579 -86.066895
L 555.006316 -86.066401
L 556.325053 -86.065947
L 557.643789 -86.065531
L 558.962526 -86.06515
L 560.281263 -86.064801
L 561.6 -86.064481
L 562.918737 -86.064188
L 564.237474 -86.06392
L 565.556211 -86.063675
L 566.874947 -86.063451
L 568.193684 -86.063246
L 569.512421 -86.063059
L 570.831158 -86.062888
L 572.149895 -86.062732
L 573.468632 -86.062589
L 574.787368 -86.062459
L 576.106105 -86.062341
L 577.424842 -86.062233
L 578.743579 -86.062135
L 580.062316 -86.062045
L 581.381053 -86.061964
L 582.699789 -86.06189
L 584.018526 -86.061822
L 585.337263 -86.061761
L 586.656 -86.061705
L 586.656 -86.061176
L 586.656 -86.061176
L 585.337263 -86.061176
L 584.018526 -86.061176
L 582.699789 -86.061176
L 581.381053 -86.061176
L 580.062316 -86.061176
L 578.743579 -86.061176
L 577.424842 -86.061176
L 576.106105 -86.061176
L 574.787368 -86.061176
L 573.468632 -86.061176
L 572.149895 -86.061176
L 570.831158 -86.061176
L 569.512421 -86.061176
L 568.193684 -86.061176
L 566.874947 -86.061176
L 565.556211 -86.061176
L 564.237474 -86.061176
L 562.918737 -86.061176
L 561.6 -86.061176
L 560.281263 -86.061176
L 558.962526 -86.061176
L 557.643789 -86.061176
L 556.325053 -86.061176
L 555.006316 -86.061176
L 553.687579 -86.061176
L 552.368842 -86.061176
L 551.050105 -86.061176
L 549.731368 -86.061176
L 548.412632 -86.061176
L 547.093895 -86.061176
L 545.775158 -86.061176
L 544.456421 -86.061176
L 543.137684 -86.061176
L 541.818947 -86.061176
L 540.500211 -86.061176
L 539.181474 -86.061176
L 537.862737 -86.061176
L 536.544 -86.061176
L 535.225263 -86.061176
L 533.906526 -86.061176
L 532.587789 -86.061176
L 531.269053 -86.061176
L 529.950316 -86.061176
L 528.631579 -86.061176
L 527.312842 -86.061176
L 525.994105 -86.061176
L 524.675368 -86.061176
L 523.356632 -86.061176
L 522.037895 -86.061176
L 520.719158 -86.061176
L 519.400421 -86.061176
L 518.081684 -86.061176
L 516.762947 -86.061176
L 515.444211 -86.061176
L 514.125474 -86.061176
L 512.806737 -86.061176
L 511.488 -86.061176
L 510.169263 -86.061176
L 508.850526 -86.061176
L 507.531789 -86.061176
L 506.213053 -86.061176
L 504.894316 -86.061176
L 503.575579 -86.061176
L 502.256842 -86.061176
L 500.938105 -86.061176
L 499.619368 -86.061176
L 498.300632 -86.061176
L 496.981895 -86.061176
L 495.663158 -86.061176
L 494.344421 -86.061176
L 493.025684 -86.061176
L 491.706947 -86.061176
L 490.388211 -86.061176
L 489.069474 -86.061176
L 487.750737 -86.061176
L 486.432 -86.061176
L 485.113263 -86.061176
L 483.794526 -86.061176
L 482.475789 -86.061176
L 481.157053 -86.061176
L 479.838316 -86.061176
L 478.519579 -86.061176
L 477.200842 -86.061176
L 475.882105 -86.061176
L 474.563368 -86.061176
L 473.244632 -86.061176
L 471.925895 -86.061176
L 470.607158 -86.061176
L 469.288421 -86.061176
L 467.969684 -86.061176
L 466.650947 -86.061176
L 465.332211 -86.061176
L 464.013474 -86.061176
L 462.694737 -86.061176
L 461.376 -86.061176
L 460.057263 -86.061176
L 458.738526 -86.061176
L 457.419789 -86.061176
L 456.101053 -86.061176
L 454.782316 -86.061176
L 453.463579 -86.061176
L 452.144842 -86.061176
L 450.826105 -86.061176
L 449.507368 -86.061176
L 448.188632 -86.061176
L 446.869895 -86.061176
L 445.551158 -86.061176
L 444.232421 -86.061176
L 442.913684 -86.061176
L 441.594947 -86.061176
L 440.276211 -86.061176
L 438.957474 -86.061176
L 437.638737 -86.061176
L 436.32 -86.061176
L 435.001263 -86.061176
L 433.682526 -86.061176
L 432.363789 -86.061176
L 431.045053 -86.061176
L 429.726316 -86.061176
L 428.407579 -86.061176
L 427.088842 -86.061176
L 425.770105 -86.061176
L 424.451368 -86.061176
L 423.132632 -86.061176
L 421.813895 -86.061176
L 420.495158 -86.061176
L 419.176421 -86.061176
L 417.857684 -86.061176
L 416.538947 -86.061176
L 415.220211 -86.061176
L 413.901474 -86.061176
L 412.582737 -86.061176
L 411.264 -86.061176
L 409.945263 -86.061176
L 408.626526 -86.061176
L 407.307789 -86.061176
L 405.989053 -86.061176
L 404.670316 -86.061176
L 403.351579 -86.061176
L 402.032842 -86.061176
L 400.714105 -86.061176
L 399.395368 -86.061176
L 398.076632 -86.061176
L 396.757895 -86.061176
L 395.439158 -86.061176
L 394.120421 -86.061176
L 392.801684 -86.061176
L 391.482947 -86.061176
L 390.164211 -86.061176
L 388.845474 -86.061176
L 387.526737 -86.061176
L 386.208 -86.061176
L 384.889263 -86.061176
L 383.570526 -86.061176
L 382.251789 -86.061176
L 380.933053 -86.061176
L 379.614316 -86.061176
L 378.295579 -86.061176
L 376.976842 -86.061176
L 375.658105 -86.061176
L 374.339368 -86.061176
L 373.020632 -86.061176
L 371.701895 -86.061176
L 370.383158 -86.061176
L 369.064421 -86.061176
L 367.745684 -86.061176
L 366.426947 -86.061176
L 365.108211 -86.061176
L 363.789474 -86.061176
L 362.470737 -86.061176
L 361.152 -86.061176
L 359.833263 -86.061176
L 358.514526 -86.061176
L 357.195789 -86.061176
L 355.877053 -86.061176
L 354.558316 -86.061176
L 353.239579 -86.061176
L 351.920842 -86.061176
L 350.602105 -86.061176
L 349.283368 -86.061176
L 347.964632 -86.061176
L 346.645895 -86.061176
L 345.327158 -86.061176
L 344.008421 -86.061176
L 342.689684 -86.061176
L 341.370947 -86.061176
L 340.052211 -86.061176
L 338.733474 -86.061176
L 337.414737 -86.061176
L 336.096 -86.061176
L 334.777263 -86.061176
L 333.458526 -86.061176
L 332.139789 -86.061176
L 330.821053 -86.061176
L 329.502316 -86.061176
L 328.183579 -86.061176
L 326.864842 -86.061176
L 325.546105 -86.061176
L 324.227368 -86.061176
L 322.908632 -86.061176
L 321.589895 -86.061176
L 320.271158 -86.061176
L 318.952421 -86.061176
L 317.633684 -86.061176
L 316.314947 -86.061176
L 314.996211 -86.061176
L 313.677474 -86.061176
L 312.358737 -86.061176
L 311.04 -86.061176
L 309.721263 -86.061176
L 308.402526 -86.061176
L 307.083789 -86.061176
L 305.765053 -86.061176
L 304.446316 -86.061176
L 303.127579 -86.061176
L 301.808842 -86.061176
L 300.490105 -86.061176
L 299.171368 -86.061176
L 297.852632 -86.061176
L 296.533895 -86.061176
L 295.215158 -86.061176
L 293.896421 -86.061176
L 292.577684 -86.061176
L 291.258947 -86.061176
L 289.940211 -86.061176
L 288.621474 -86.061176
L 287.302737 -86.061176
L 285.984 -86.061176
L 284.665263 -86.061176
L 283.346526 -86.061176
L 282.027789 -86.061176
L 280.709053 -86.061176
L 279.390316 -86.061176
L 278.071579 -86.061176
L 276.752842 -86.061176
L 275.434105 -86.061176
L 274.115368 -86.061176
L 272.796632 -86.061176
L 271.477895 -86.061176
L 270.159158 -86.061176
L 268.840421 -86.061176
L 267.521684 -86.061176
L 266.202947 -86.061176
L 264.884211 -86.061176
L 263.565474 -86.061176
L 262.246737 -86.061176
L 260.928 -86.061176
L 259.609263 -86.061176
L 258.290526 -86.061176
L 256.971789 -86.061176
L 255.653053 -86.061176
L 254.334316 -86.061176
L 253.015579 -86.061176
L 251.696842 -86.061176
L 250.378105 -86.061176
L 249.059368 -86.061176
L 247.740632 -86.061176
L 246.421895 -86.061176
L 245.103158 -86.061176
L 243.784421 -86.061176
L 242.465684 -86.061176
L 241.146947 -86.061176
L 239.828211 -86.061176
L 238.509474 -86.061176
L 237.190737 -86.061176
L 235.872 -86.061176
L 234.553263 -86.061176
L 233.234526 -86.061176
L 231.915789 -86.061176
L 230.597053 -86.061176
L 229.278316 -86.061176
L 227.959579 -86.061176
L 226.640842 -86.061176
L 225.322105 -86.061176
L 224.003368 -86.061176
L 222.684632 -86.061176
L 221.365895 -86.061176
L 220.047158 -86.061176
L 218.728421 -86.061176
L 217.409684 -86.061176
L 216.090947 -86.061176
L 214.772211 -86.061176
L 213.453474 -86.061176
L 212.134737 -86.061176
L 210.816 -86.061176
L 209.497263 -86.061176
L 208.178526 -86.061176
L 206.859789 -86.061176
L 205.541053 -86.061176
L 204.222316 -86.061176
L 202.903579 -86.061176
L 201.584842 -86.061176
L 200.266105 -86.061176
L 198.947368 -86.061176
L 197.628632 -86.061176
L 196.309895 -86.061176
L 194.991158 -86.061176
L 193.672421 -86.061176
L 192.353684 -86.061176
L 191.034947 -86.061176
L 189.716211 -86.061176
L 188.397474 -86.061176
L 187.078737 -86.061176
L 185.76 -86.061176
L 184.441263 -86.061176
L 183.122526 -86.061176
L 181.803789 -86.061176
L 180.485053 -86.061176
L 179.166316 -86.061176
L 177.847579 -86.061176
L 176.528842 -86.061176
L 175.210105 -86.061176
L 173.891368 -86.061176
L 172.572632 -86.061176
L 171.253895 -86.061176
L 169.935158 -86.061176
L 168.616421 -86.061176
L 167.297684 -86.061176
L 165.978947 -86.061176
L 164.660211 -86.061176
L 163.341474 -86.061176
L 162.022737 -86.061176
L 160.704 -86.061176
L 159.385263 -86.061176
L 158.066526 -86.061176
L 156.747789 -86.061176
L 155.429053 -86.061176
L 154.110316 -86.061176
L 152.791579 -86.061176
L 151.472842 -86.061176
L 150.154105 -86.061176
L 148.835368 -86.061176
L 147.516632 -86.061176
L 146.197895 -86.061176
L 144.879158 -86.061176
L 143.560421 -86.061176
L 142.241684 -86.061176
L 140.922947 -86.061176
L 139.604211 -86.061176
L 138.285474 -86.061176
L 136.966737 -86.061176
L 135.648 -86.061176
L 134.329263 -86.061176
L 133.010526 -86.061176
L 131.691789 -86.061176
L 130.373053 -86.061176
L 129.054316 -86.061176
L 127.735579 -86.061176
L 126.416842 -86.061176
L 125.098105 -86.061176
L 123.779368 -86.061176
L 122.460632 -86.061176
L 121.141895 -86.061176
L 119.823158 -86.061176
L 118.504421 -86.061176
L 117.185684 -86.061176
L 115.866947 -86.061176
L 114.548211 -86.061176
L 113.229474 -86.061176
L 111.910737 -86.061176
L 110.592 -86.061176
L 109.273263 -86.061176
L 107.954526 -86.061176
L 106.635789 -86.061176
L 105.317053 -86.061176
L 103.998316 -86.061176
L 102.679579 -86.061176
L 101.360842 -86.061176
L 100.042105 -86.061176
L 98.723368 -86.061176
L 97.404632 -86.061176
L 96.085895 -86.061176
L 94.767158 -86.061176
L 93.448421 -86.061176
L 92.129684 -86.061176
L 90.810947 -86.061176
L 89.492211 -86.061176
L 88.173474 -86.061176
L 86.854737 -86.061176
L 85.536 -86.061176
L 84.217263 -86.061176
L 82.898526 -86.061176
L 81.579789 -86.061176
L 80.261053 -86.061176
L 78.942316 -86.061176
L 77.623579 -86.061176
L 76.304842 -86.061176
L 74.986105 -86.061176
L 73.667368 -86.061176
L 72.348632 -86.061176
L 71.029895 -86.061176
L 69.711158 -86.061176
L 68.392421 -86.061176
L 67.073684 -86.061176
L 65.754947 -86.061176
L 64.436211 -86.061176
L 63.117474 -86.061176
L 61.798737 -86.061176
L 60.48 -86.061176
z
" style="stroke: #65dfc0; stroke-opacity: 0.09"/>
    </defs>
    <g clip-path="url(#p71b8916c39)">
     <use xlink:href="#m7cdeec19af" x="0" y="288" style="fill: #65dfc0; fill-opacity: 0.09; stroke: #65dfc0; stroke-opacity: 0.09"/>
    </g>
   </g>
   <g id="FillBetweenPolyCollection_2">
    <defs>
     <path id="me47dd00505" d="M 60.48 -86.061176
L 60.48 -86.061705
L 61.798737 -86.061761
L 63.117474 -86.061822
L 64.436211 -86.06189
L 65.754947 -86.061964
L 67.073684 -86.062045
L 68.392421 -86.062135
L 69.711158 -86.062233
L 71.029895 -86.062341
L 72.348632 -86.062459
L 73.667368 -86.062589
L 74.986105 -86.062732
L 76.304842 -86.062888
L 77.623579 -86.063059
L 78.942316 -86.063246
L 80.261053 -86.063451
L 81.579789 -86.063675
L 82.898526 -86.06392
L 84.217263 -86.064188
L 85.536 -86.064481
L 86.854737 -86.064801
L 88.173474 -86.06515
L 89.492211 -86.065531
L 90.810947 -86.065947
L 92.129684 -86.066401
L 93.448421 -86.066895
L 94.767158 -86.067434
L 96.085895 -86.06802
L 97.404632 -86.068659
L 98.723368 -86.069353
L 100.042105 -86.070109
L 101.360842 -86.070931
L 102.679579 -86.071823
L 103.998316 -86.072793
L 105.317053 -86.073847
L 106.635789 -86.07499
L 107.954526 -86.07623
L 109.273263 -86.077575
L 110.592 -86.079033
L 111.910737 -86.080613
L 113.229474 -86.082324
L 114.548211 -86.084176
L 115.866947 -86.086181
L 117.185684 -86.088349
L 118.504421 -86.090694
L 119.823158 -86.093228
L 121.141895 -86.095965
L 122.460632 -86.098921
L 123.779368 -86.102112
L 125.098105 -86.105555
L 126.416842 -86.109268
L 127.735579 -86.113271
L 129.054316 -86.117584
L 130.373053 -86.12223
L 131.691789 -86.127232
L 133.010526 -86.132615
L 134.329263 -86.138405
L 135.648 -86.144632
L 136.966737 -86.151324
L 138.285474 -86.158513
L 139.604211 -86.166234
L 140.922947 -86.174522
L 142.241684 -86.183414
L 143.560421 -86.192951
L 144.879158 -86.203175
L 146.197895 -86.21413
L 147.516632 -86.225865
L 148.835368 -86.238428
L 150.154105 -86.251874
L 151.472842 -86.266257
L 152.791579 -86.281635
L 154.110316 -86.298072
L 155.429053 -86.315632
L 156.747789 -86.334384
L 158.066526 -86.3544
L 159.385263 -86.375756
L 160.704 -86.398532
L 162.022737 -86.422811
L 163.341474 -86.448681
L 164.660211 -86.476236
L 165.978947 -86.505571
L 167.297684 -86.536788
L 168.616421 -86.569993
L 169.935158 -86.605298
L 171.253895 -86.642819
L 172.572632 -86.682677
L 173.891368 -86.725
L 175.210105 -86.76992
L 176.528842 -86.817575
L 177.847579 -86.86811
L 179.166316 -86.921675
L 180.485053 -86.978427
L 181.803789 -87.03853
L 183.122526 -87.102151
L 184.441263 -87.169469
L 185.76 -87.240666
L 187.078737 -87.315932
L 188.397474 -87.395464
L 189.716211 -87.479467
L 191.034947 -87.568153
L 192.353684 -87.66174
L 193.672421 -87.760457
L 194.991158 -87.864537
L 196.309895 -87.974222
L 197.628632 -88.089764
L 198.947368 -88.211418
L 200.266105 -88.339453
L 201.584842 -88.474141
L 202.903579 -88.615764
L 204.222316 -88.764613
L 205.541053 -88.920984
L 206.859789 -89.085185
L 208.178526 -89.257528
L 209.497263 -89.438335
L 210.816 -89.627936
L 212.134737 -89.826668
L 213.453474 -90.034874
L 214.772211 -90.252908
L 216.090947 -90.481127
L 217.409684 -90.719899
L 218.728421 -90.969596
L 220.047158 -91.230598
L 221.365895 -91.50329
L 222.684632 -91.788064
L 224.003368 -92.085317
L 225.322105 -92.395453
L 226.640842 -92.718878
L 227.959579 -93.056004
L 229.278316 -93.407247
L 230.597053 -93.773028
L 231.915789 -94.153767
L 233.234526 -94.549891
L 234.553263 -94.961825
L 235.872 -95.389999
L 237.190737 -95.834841
L 238.509474 -96.296779
L 239.828211 -96.776241
L 241.146947 -97.273654
L 242.465684 -97.789443
L 243.784421 -98.324027
L 245.103158 -98.877825
L 246.421895 -99.451249
L 247.740632 -100.044706
L 249.059368 -100.658595
L 250.378105 -101.29331
L 251.696842 -101.949235
L 253.015579 -102.626744
L 254.334316 -103.326203
L 255.653053 -104.047962
L 256.971789 -104.792363
L 258.290526 -105.559732
L 259.609263 -106.350379
L 260.928 -107.164601
L 262.246737 -108.002677
L 263.565474 -108.864865
L 264.884211 -109.751407
L 266.202947 -110.662524
L 267.521684 -111.598414
L 268.840421 -112.559252
L 270.159158 -113.545191
L 271.477895 -114.556357
L 272.796632 -115.592851
L 274.115368 -116.654745
L 275.434105 -117.742084
L 276.752842 -118.854882
L 278.071579 -119.993124
L 279.390316 -121.156763
L 280.709053 -122.345716
L 282.027789 -123.559871
L 283.346526 -124.799077
L 284.665263 -126.063151
L 285.984 -127.351871
L 287.302737 -128.664979
L 288.621474 -130.002177
L 289.940211 -131.36313
L 291.258947 -132.747463
L 292.577684 -134.15476
L 293.896421 -135.584566
L 295.215158 -137.036382
L 296.533895 -138.509671
L 297.852632 -140.003852
L 299.171368 -141.518301
L 300.490105 -143.052352
L 301.808842 -144.605299
L 303.127579 -146.17639
L 304.446316 -147.764832
L 305.765053 -149.369791
L 307.083789 -150.990389
L 308.402526 -152.625706
L 309.721263 -154.274783
L 311.04 -155.936619
L 312.358737 -157.610171
L 313.677474 -159.29436
L 314.996211 -160.988065
L 316.314947 -162.69013
L 317.633684 -164.399361
L 318.952421 -166.114528
L 320.271158 -167.834368
L 321.589895 -169.557583
L 322.908632 -171.282845
L 324.227368 -173.008795
L 325.546105 -174.734046
L 326.864842 -176.457182
L 328.183579 -178.176765
L 329.502316 -179.891331
L 330.821053 -181.599395
L 332.139789 -183.299455
L 333.458526 -184.989988
L 334.777263 -186.669459
L 336.096 -188.336317
L 337.414737 -189.989004
L 338.733474 -191.62595
L 340.052211 -193.245582
L 341.370947 -194.846322
L 342.689684 -196.426592
L 344.008421 -197.984814
L 345.327158 -199.519416
L 346.645895 -201.028832
L 347.964632 -202.511505
L 349.283368 -203.965892
L 350.602105 -205.390462
L 351.920842 -206.783703
L 353.239579 -208.144123
L 354.558316 -209.470252
L 355.877053 -210.760646
L 357.195789 -212.013889
L 358.514526 -213.228594
L 359.833263 -214.403409
L 361.152 -215.537017
L 362.470737 -216.628138
L 363.789474 -217.675534
L 365.108211 -218.678008
L 366.426947 -219.634409
L 367.745684 -220.543634
L 369.064421 -221.404628
L 370.383158 -222.216388
L 371.701895 -222.977964
L 373.020632 -223.688462
L 374.339368 -224.347043
L 375.658105 -224.952929
L 376.976842 -225.505401
L 378.295579 -226.003801
L 379.614316 -226.447534
L 380.933053 -226.836071
L 382.251789 -227.168945
L 383.570526 -227.445758
L 384.889263 -227.666175
L 386.208 -227.829933
L 387.526737 -227.936833
L 388.845474 -227.986748
L 390.164211 -227.979616
L 391.482947 -227.915447
L 392.801684 -227.794317
L 394.120421 -227.616373
L 395.439158 -227.38183
L 396.757895 -227.090968
L 398.076632 -226.744138
L 399.395368 -226.341756
L 400.714105 -225.884303
L 402.032842 -225.372327
L 403.351579 -224.806438
L 404.670316 -224.187308
L 405.989053 -223.515673
L 407.307789 -222.792325
L 408.626526 -222.018117
L 409.945263 -221.193957
L 411.264 -220.320809
L 412.582737 -219.39969
L 413.901474 -218.431665
L 415.220211 -217.41785
L 416.538947 -216.35941
L 417.857684 -215.257549
L 419.176421 -214.113518
L 420.495158 -212.928605
L 421.813895 -211.704138
L 423.132632 -210.441476
L 424.451368 -209.142014
L 425.770105 -207.807176
L 427.088842 -206.438412
L 428.407579 -205.037198
L 429.726316 -203.605031
L 431.045053 -202.143429
L 432.363789 -200.653924
L 433.682526 -199.138065
L 435.001263 -197.597411
L 436.32 -196.03353
L 437.638737 -194.447995
L 438.957474 -192.842384
L 440.276211 -191.218275
L 441.594947 -189.577247
L 442.913684 -187.92087
L 444.232421 -186.250713
L 445.551158 -184.568332
L 446.869895 -182.875274
L 448.188632 -181.173071
L 449.507368 -179.46324
L 450.826105 -177.747282
L 452.144842 -176.026674
L 453.463579 -174.302875
L 454.782316 -172.577318
L 456.101053 -170.851411
L 457.419789 -169.126535
L 458.738526 -167.40404
L 460.057263 -165.685248
L 461.376 -163.971448
L 462.694737 -162.263895
L 464.013474 -160.563809
L 465.332211 -158.872376
L 466.650947 -157.190743
L 467.969684 -155.52002
L 469.288421 -153.861278
L 470.607158 -152.215549
L 471.925895 -150.583823
L 473.244632 -148.96705
L 474.563368 -147.36614
L 475.882105 -145.781959
L 477.200842 -144.215331
L 478.519579 -142.66704
L 479.838316 -141.137824
L 481.157053 -139.628382
L 482.475789 -138.139367
L 483.794526 -136.671393
L 485.113263 -135.225031
L 486.432 -133.800807
L 487.750737 -132.39921
L 489.069474 -131.020684
L 490.388211 -129.665636
L 491.706947 -128.334431
L 493.025684 -127.027394
L 494.344421 -125.744813
L 495.663158 -124.486936
L 496.981895 -123.253977
L 498.300632 -122.04611
L 499.619368 -120.863476
L 500.938105 -119.706181
L 502.256842 -118.574296
L 503.575579 -117.467862
L 504.894316 -116.386887
L 506.213053 -115.331348
L 507.531789 -114.301195
L 508.850526 -113.296346
L 510.169263 -112.316695
L 511.488 -111.362109
L 512.806737 -110.43243
L 514.125474 -109.527476
L 515.444211 -108.647044
L 516.762947 -107.790907
L 518.081684 -106.95882
L 519.400421 -106.150519
L 520.719158 -105.365719
L 522.037895 -104.604122
L 523.356632 -103.865413
L 524.675368 -103.149261
L 525.994105 -102.455323
L 527.312842 -101.783245
L 528.631579 -101.132658
L 529.950316 -100.503185
L 531.269053 -99.894441
L 532.587789 -99.306031
L 533.906526 -98.737552
L 535.225263 -98.188596
L 536.544 -97.65875
L 537.862737 -97.147595
L 539.181474 -96.654709
L 540.500211 -96.179668
L 541.818947 -95.722044
L 543.137684 -95.28141
L 544.456421 -94.857336
L 545.775158 -94.449394
L 547.093895 -94.057157
L 548.412632 -93.680197
L 549.731368 -93.31809
L 551.050105 -92.970415
L 552.368842 -92.636753
L 553.687579 -92.316689
L 555.006316 -92.009812
L 556.325053 -91.715716
L 557.643789 -91.434
L 558.962526 -91.164267
L 560.281263 -90.906127
L 561.6 -90.659197
L 562.918737 -90.423098
L 564.237474 -90.197459
L 565.556211 -89.981915
L 566.874947 -89.77611
L 568.193684 -89.579693
L 569.512421 -89.392322
L 570.831158 -89.213661
L 572.149895 -89.043384
L 573.468632 -88.88117
L 574.787368 -88.726707
L 576.106105 -88.579692
L 577.424842 -88.43983
L 578.743579 -88.306831
L 580.062316 -88.180417
L 581.381053 -88.060315
L 582.699789 -87.946262
L 584.018526 -87.838001
L 585.337263 -87.735284
L 586.656 -87.637872
L 586.656 -86.061176
L 586.656 -86.061176
L 585.337263 -86.061176
L 584.018526 -86.061176
L 582.699789 -86.061176
L 581.381053 -86.061176
L 580.062316 -86.061176
L 578.743579 -86.061176
L 577.424842 -86.061176
L 576.106105 -86.061176
L 574.787368 -86.061176
L 573.468632 -86.061176
L 572.149895 -86.061176
L 570.831158 -86.061176
L 569.512421 -86.061176
L 568.193684 -86.061176
L 566.874947 -86.061176
L 565.556211 -86.061176
L 564.237474 -86.061176
L 562.918737 -86.061176
L 561.6 -86.061176
L 560.281263 -86.061176
L 558.962526 -86.061176
L 557.643789 -86.061176
L 556.325053 -86.061176
L 555.006316 -86.061176
L 553.687579 -86.061176
L 552.368842 -86.061176
L 551.050105 -86.061176
L 549.731368 -86.061176
L 548.412632 -86.061176
L 547.093895 -86.061176
L 545.775158 -86.061176
L 544.456421 -86.061176
L 543.137684 -86.061176
L 541.818947 -86.061176
L 540.500211 -86.061176
L 539.181474 -86.061176
L 537.862737 -86.061176
L 536.544 -86.061176
L 535.225263 -86.061176
L 533.906526 -86.061176
L 532.587789 -86.061176
L 531.269053 -86.061176
L 529.950316 -86.061176
L 528.631579 -86.061176
L 527.312842 -86.061176
L 525.994105 -86.061176
L 524.675368 -86.061176
L 523.356632 -86.061176
L 522.037895 -86.061176
L 520.719158 -86.061176
L 519.400421 -86.061176
L 518.081684 -86.061176
L 516.762947 -86.061176
L 515.444211 -86.061176
L 514.125474 -86.061176
L 512.806737 -86.061176
L 511.488 -86.061176
L 510.169263 -86.061176
L 508.850526 -86.061176
L 507.531789 -86.061176
L 506.213053 -86.061176
L 504.894316 -86.061176
L 503.575579 -86.061176
L 502.256842 -86.061176
L 500.938105 -86.061176
L 499.619368 -86.061176
L 498.300632 -86.061176
L 496.981895 -86.061176
L 495.663158 -86.061176
L 494.344421 -86.061176
L 493.025684 -86.061176
L 491.706947 -86.061176
L 490.388211 -86.061176
L 489.069474 -86.061176
L 487.750737 -86.061176
L 486.432 -86.061176
L 485.113263 -86.061176
L 483.794526 -86.061176
L 482.475789 -86.061176
L 481.157053 -86.061176
L 479.838316 -86.061176
L 478.519579 -86.061176
L 477.200842 -86.061176
L 475.882105 -86.061176
L 474.563368 -86.061176
L 473.244632 -86.061176
L 471.925895 -86.061176
L 470.607158 -86.061176
L 469.288421 -86.061176
L 467.969684 -86.061176
L 466.650947 -86.061176
L 465.332211 -86.061176
L 464.013474 -86.061176
L 462.694737 -86.061176
L 461.376 -86.061176
L 460.057263 -86.061176
L 458.738526 -86.061176
L 457.419789 -86.061176
L 456.101053 -86.061176
L 454.782316 -86.061176
L 453.463579 -86.061176
L 452.144842 -86.061176
L 450.826105 -86.061176
L 449.507368 -86.061176
L 448.188632 -86.061176
L 446.869895 -86.061176
L 445.551158 -86.061176
L 444.232421 -86.061176
L 442.913684 -86.061176
L 441.594947 -86.061176
L 440.276211 -86.061176
L 438.957474 -86.061176
L 437.638737 -86.061176
L 436.32 -86.061176
L 435.001263 -86.061176
L 433.682526 -86.061176
L 432.363789 -86.061176
L 431.045053 -86.061176
L 429.726316 -86.061176
L 428.407579 -86.061176
L 427.088842 -86.061176
L 425.770105 -86.061176
L 424.451368 -86.061176
L 423.132632 -86.061176
L 421.813895 -86.061176
L 420.495158 -86.061176
L 419.176421 -86.061176
L 417.857684 -86.061176
L 416.538947 -86.061176
L 415.220211 -86.061176
L 413.901474 -86.061176
L 412.582737 -86.061176
L 411.264 -86.061176
L 409.945263 -86.061176
L 408.626526 -86.061176
L 407.307789 -86.061176
L 405.989053 -86.061176
L 404.670316 -86.061176
L 403.351579 -86.061176
L 402.032842 -86.061176
L 400.714105 -86.061176
L 399.395368 -86.061176
L 398.076632 -86.061176
L 396.757895 -86.061176
L 395.439158 -86.061176
L 394.120421 -86.061176
L 392.801684 -86.061176
L 391.482947 -86.061176
L 390.164211 -86.061176
L 388.845474 -86.061176
L 387.526737 -86.061176
L 386.208 -86.061176
L 384.889263 -86.061176
L 383.570526 -86.061176
L 382.251789 -86.061176
L 380.933053 -86.061176
L 379.614316 -86.061176
L 378.295579 -86.061176
L 376.976842 -86.061176
L 375.658105 -86.061176
L 374.339368 -86.061176
L 373.020632 -86.061176
L 371.701895 -86.061176
L 370.383158 -86.061176
L 369.064421 -86.061176
L 367.745684 -86.061176
L 366.426947 -86.061176
L 365.108211 -86.061176
L 363.789474 -86.061176
L 362.470737 -86.061176
L 361.152 -86.061176
L 359.833263 -86.061176
L 358.514526 -86.061176
L 357.195789 -86.061176
L 355.877053 -86.061176
L 354.558316 -86.061176
L 353.239579 -86.061176
L 351.920842 -86.061176
L 350.602105 -86.061176
L 349.283368 -86.061176
L 347.964632 -86.061176
L 346.645895 -86.061176
L 345.327158 -86.061176
L 344.008421 -86.061176
L 342.689684 -86.061176
L 341.370947 -86.061176
L 340.052211 -86.061176
L 338.733474 -86.061176
L 337.414737 -86.061176
L 336.096 -86.061176
L 334.777263 -86.061176
L 333.458526 -86.061176
L 332.139789 -86.061176
L 330.821053 -86.061176
L 329.502316 -86.061176
L 328.183579 -86.061176
L 326.864842 -86.061176
L 325.546105 -86.061176
L 324.227368 -86.061176
L 322.908632 -86.061176
L 321.589895 -86.061176
L 320.271158 -86.061176
L 318.952421 -86.061176
L 317.633684 -86.061176
L 316.314947 -86.061176
L 314.996211 -86.061176
L 313.677474 -86.061176
L 312.358737 -86.061176
L 311.04 -86.061176
L 309.721263 -86.061176
L 308.402526 -86.061176
L 307.083789 -86.061176
L 305.765053 -86.061176
L 304.446316 -86.061176
L 303.127579 -86.061176
L 301.808842 -86.061176
L 300.490105 -86.061176
L 299.171368 -86.061176
L 297.852632 -86.061176
L 296.533895 -86.061176
L 295.215158 -86.061176
L 293.896421 -86.061176
L 292.577684 -86.061176
L 291.258947 -86.061176
L 289.940211 -86.061176
L 288.621474 -86.061176
L 287.302737 -86.061176
L 285.984 -86.061176
L 284.665263 -86.061176
L 283.346526 -86.061176
L 282.027789 -86.061176
L 280.709053 -86.061176
L 279.390316 -86.061176
L 278.071579 -86.061176
L 276.752842 -86.061176
L 275.434105 -86.061176
L 274.115368 -86.061176
L 272.796632 -86.061176
L 271.477895 -86.061176
L 270.159158 -86.061176
L 268.840421 -86.061176
L 267.521684 -86.061176
L 266.202947 -86.061176
L 264.884211 -86.061176
L 263.565474 -86.061176
L 262.246737 -86.061176
L 260.928 -86.061176
L 259.609263 -86.061176
L 258.290526 -86.061176
L 256.971789 -86.061176
L 255.653053 -86.061176
L 254.334316 -86.061176
L 253.015579 -86.061176
L 251.696842 -86.061176
L 250.378105 -86.061176
L 249.059368 -86.061176
L 247.740632 -86.061176
L 246.421895 -86.061176
L 245.103158 -86.061176
L 243.784421 -86.061176
L 242.465684 -86.061176
L 241.146947 -86.061176
L 239.828211 -86.061176
L 238.509474 -86.061176
L 237.190737 -86.061176
L 235.872 -86.061176
L 234.553263 -86.061176
L 233.234526 -86.061176
L 231.915789 -86.061176
L 230.597053 -86.061176
L 229.278316 -86.061176
L 227.959579 -86.061176
L 226.640842 -86.061176
L 225.322105 -86.061176
L 224.003368 -86.061176
L 222.684632 -86.061176
L 221.365895 -86.061176
L 220.047158 -86.061176
L 218.728421 -86.061176
L 217.409684 -86.061176
L 216.090947 -86.061176
L 214.772211 -86.061176
L 213.453474 -86.061176
L 212.134737 -86.061176
L 210.816 -86.061176
L 209.497263 -86.061176
L 208.178526 -86.061176
L 206.859789 -86.061176
L 205.541053 -86.061176
L 204.222316 -86.061176
L 202.903579 -86.061176
L 201.584842 -86.061176
L 200.266105 -86.061176
L 198.947368 -86.061176
L 197.628632 -86.061176
L 196.309895 -86.061176
L 194.991158 -86.061176
L 193.672421 -86.061176
L 192.353684 -86.061176
L 191.034947 -86.061176
L 189.716211 -86.061176
L 188.397474 -86.061176
L 187.078737 -86.061176
L 185.76 -86.061176
L 184.441263 -86.061176
L 183.122526 -86.061176
L 181.803789 -86.061176
L 180.485053 -86.061176
L 179.166316 -86.061176
L 177.847579 -86.061176
L 176.528842 -86.061176
L 175.210105 -86.061176
L 173.891368 -86.061176
L 172.572632 -86.061176
L 171.253895 -86.061176
L 169.935158 -86.061176
L 168.616421 -86.061176
L 167.297684 -86.061176
L 165.978947 -86.061176
L 164.660211 -86.061176
L 163.341474 -86.061176
L 162.022737 -86.061176
L 160.704 -86.061176
L 159.385263 -86.061176
L 158.066526 -86.061176
L 156.747789 -86.061176
L 155.429053 -86.061176
L 154.110316 -86.061176
L 152.791579 -86.061176
L 151.472842 -86.061176
L 150.154105 -86.061176
L 148.835368 -86.061176
L 147.516632 -86.061176
L 146.197895 -86.061176
L 144.879158 -86.061176
L 143.560421 -86.061176
L 142.241684 -86.061176
L 140.922947 -86.061176
L 139.604211 -86.061176
L 138.285474 -86.061176
L 136.966737 -86.061176
L 135.648 -86.061176
L 134.329263 -86.061176
L 133.010526 -86.061176
L 131.691789 -86.061176
L 130.373053 -86.061176
L 129.054316 -86.061176
L 127.735579 -86.061176
L 126.416842 -86.061176
L 125.098105 -86.061176
L 123.779368 -86.061176
L 122.460632 -86.061176
L 121.141895 -86.061176
L 119.823158 -86.061176
L 118.504421 -86.061176
L 117.185684 -86.061176
L 115.866947 -86.061176
L 114.548211 -86.061176
L 113.229474 -86.061176
L 111.910737 -86.061176
L 110.592 -86.061176
L 109.273263 -86.061176
L 107.954526 -86.061176
L 106.635789 -86.061176
L 105.317053 -86.061176
L 103.998316 -86.061176
L 102.679579 -86.061176
L 101.360842 -86.061176
L 100.042105 -86.061176
L 98.723368 -86.061176
L 97.404632 -86.061176
L 96.085895 -86.061176
L 94.767158 -86.061176
L 93.448421 -86.061176
L 92.129684 -86.061176
L 90.810947 -86.061176
L 89.492211 -86.061176
L 88.173474 -86.061176
L 86.854737 -86.061176
L 85.536 -86.061176
L 84.217263 -86.061176
L 82.898526 -86.061176
L 81.579789 -86.061176
L 80.261053 -86.061176
L 78.942316 -86.061176
L 77.623579 -86.061176
L 76.304842 -86.061176
L 74.986105 -86.061176
L 73.667368 -86.061176
L 72.348632 -86.061176
L 71.029895 -86.061176
L 69.711158 -86.061176
L 68.392421 -86.061176
L 67.073684 -86.061176
L 65.754947 -86.061176
L 64.436211 -86.061176
L 63.117474 -86.061176
L 61.798737 -86.061176
L 60.48 -86.061176
z
" style="stroke: #89b4ff; stroke-opacity: 0.09"/>
    </defs>
    <g clip-path="url(#p71b8916c39)">
     <use xlink:href="#me47dd00505" x="0" y="288" style="fill: #89b4ff; fill-opacity: 0.09; stroke: #89b4ff; stroke-opacity: 0.09"/>
    </g>
   </g>
   <g id="matplotlib.axis_1">
    <g id="xtick_1">
     <g id="line2d_1">
      <defs>
       <path id="me6cf69ac50" d="M 0 0
L 0 3.5
" style="stroke: #aebbd0; stroke-width: 0.8"/>
      </defs>
      <g>
       <use xlink:href="#me6cf69ac50" x="60.48" y="230.4" style="fill: #aebbd0; stroke: #aebbd0; stroke-width: 0.8"/>
      </g>
     </g>
     <g id="text_1">
      <!-- −4 -->
      <g style="fill: #aebbd0" transform="translate(50.897578 247.276953) scale(0.13 -0.13)">
       <defs>
        <path id="DejaVuSans-c9c" d="M 678 2272
L 4684 2272
L 4684 1741
L 678 1741
L 678 2272
z
" transform="scale(0.015625)"/>
        <path id="DejaVuSans-17" d="M 2419 4116
L 825 1625
L 2419 1625
L 2419 4116
z
M 2253 4666
L 3047 4666
L 3047 1625
L 3713 1625
L 3713 1100
L 3047 1100
L 3047 0
L 2419 0
L 2419 1100
L 313 1100
L 313 1709
L 2253 4666
z
" transform="scale(0.015625)"/>
       </defs>
       <use xlink:href="#DejaVuSans-c9c"/>
       <use xlink:href="#DejaVuSans-17" transform="translate(83.796875 0)"/>
      </g>
     </g>
    </g>
    <g id="xtick_2">
     <g id="line2d_2">
      <g>
       <use xlink:href="#me6cf69ac50" x="126.252" y="230.4" style="fill: #aebbd0; stroke: #aebbd0; stroke-width: 0.8"/>
      </g>
     </g>
     <g id="text_2">
      <!-- −3 -->
      <g style="fill: #aebbd0" transform="translate(116.669578 247.276953) scale(0.13 -0.13)">
       <defs>
        <path id="DejaVuSans-16" d="M 2597 2516
Q 3050 2419 3304 2112
Q 3559 1806 3559 1356
Q 3559 666 3084 287
Q 2609 -91 1734 -91
Q 1441 -91 1130 -33
Q 819 25 488 141
L 488 750
Q 750 597 1062 519
Q 1375 441 1716 441
Q 2309 441 2620 675
Q 2931 909 2931 1356
Q 2931 1769 2642 2001
Q 2353 2234 1838 2234
L 1294 2234
L 1294 2753
L 1863 2753
Q 2328 2753 2575 2939
Q 2822 3125 2822 3475
Q 2822 3834 2567 4026
Q 2313 4219 1838 4219
Q 1578 4219 1281 4162
Q 984 4106 628 3988
L 628 4550
Q 988 4650 1302 4700
Q 1616 4750 1894 4750
Q 2613 4750 3031 4423
Q 3450 4097 3450 3541
Q 3450 3153 3228 2886
Q 3006 2619 2597 2516
z
" transform="scale(0.015625)"/>
       </defs>
       <use xlink:href="#DejaVuSans-c9c"/>
       <use xlink:href="#DejaVuSans-16" transform="translate(83.796875 0)"/>
      </g>
     </g>
    </g>
    <g id="xtick_3">
     <g id="line2d_3">
      <g>
       <use xlink:href="#me6cf69ac50" x="192.024" y="230.4" style="fill: #aebbd0; stroke: #aebbd0; stroke-width: 0.8"/>
      </g>
     </g>
     <g id="text_3">
      <!-- −2 -->
      <g style="fill: #aebbd0" transform="translate(182.441578 247.276953) scale(0.13 -0.13)">
       <defs>
        <path id="DejaVuSans-15" d="M 1228 531
L 3431 531
L 3431 0
L 469 0
L 469 531
Q 828 903 1448 1529
Q 2069 2156 2228 2338
Q 2531 2678 2651 2914
Q 2772 3150 2772 3378
Q 2772 3750 2511 3984
Q 2250 4219 1831 4219
Q 1534 4219 1204 4116
Q 875 4013 500 3803
L 500 4441
Q 881 4594 1212 4672
Q 1544 4750 1819 4750
Q 2544 4750 2975 4387
Q 3406 4025 3406 3419
Q 3406 3131 3298 2873
Q 3191 2616 2906 2266
Q 2828 2175 2409 1742
Q 1991 1309 1228 531
z
" transform="scale(0.015625)"/>
       </defs>
       <use xlink:href="#DejaVuSans-c9c"/>
       <use xlink:href="#DejaVuSans-15" transform="translate(83.796875 0)"/>
      </g>
     </g>
    </g>
    <g id="xtick_4">
     <g id="line2d_4">
      <g>
       <use xlink:href="#me6cf69ac50" x="257.796" y="230.4" style="fill: #aebbd0; stroke: #aebbd0; stroke-width: 0.8"/>
      </g>
     </g>
     <g id="text_4">
      <!-- −1 -->
      <g style="fill: #aebbd0" transform="translate(248.213578 247.276953) scale(0.13 -0.13)">
       <defs>
        <path id="DejaVuSans-14" d="M 794 531
L 1825 531
L 1825 4091
L 703 3866
L 703 4441
L 1819 4666
L 2450 4666
L 2450 531
L 3481 531
L 3481 0
L 794 0
L 794 531
z
" transform="scale(0.015625)"/>
       </defs>
       <use xlink:href="#DejaVuSans-c9c"/>
       <use xlink:href="#DejaVuSans-14" transform="translate(83.796875 0)"/>
      </g>
     </g>
    </g>
    <g id="xtick_5">
     <g id="line2d_5">
      <g>
       <use xlink:href="#me6cf69ac50" x="323.568" y="230.4" style="fill: #aebbd0; stroke: #aebbd0; stroke-width: 0.8"/>
      </g>
     </g>
     <g id="text_5">
      <!-- 0 -->
      <g style="fill: #aebbd0" transform="translate(319.432375 247.276953) scale(0.13 -0.13)">
       <defs>
        <path id="DejaVuSans-13" d="M 2034 4250
Q 1547 4250 1301 3770
Q 1056 3291 1056 2328
Q 1056 1369 1301 889
Q 1547 409 2034 409
Q 2525 409 2770 889
Q 3016 1369 3016 2328
Q 3016 3291 2770 3770
Q 2525 4250 2034 4250
z
M 2034 4750
Q 2819 4750 3233 4129
Q 3647 3509 3647 2328
Q 3647 1150 3233 529
Q 2819 -91 2034 -91
Q 1250 -91 836 529
Q 422 1150 422 2328
Q 422 3509 836 4129
Q 1250 4750 2034 4750
z
" transform="scale(0.015625)"/>
       </defs>
       <use xlink:href="#DejaVuSans-13"/>
      </g>
     </g>
    </g>
    <g id="xtick_6">
     <g id="line2d_6">
      <g>
       <use xlink:href="#me6cf69ac50" x="389.34" y="230.4" style="fill: #aebbd0; stroke: #aebbd0; stroke-width: 0.8"/>
      </g>
     </g>
     <g id="text_6">
      <!-- 1 -->
      <g style="fill: #aebbd0" transform="translate(385.204375 247.276953) scale(0.13 -0.13)">
       <use xlink:href="#DejaVuSans-14"/>
      </g>
     </g>
    </g>
    <g id="xtick_7">
     <g id="line2d_7">
      <g>
       <use xlink:href="#me6cf69ac50" x="455.112" y="230.4" style="fill: #aebbd0; stroke: #aebbd0; stroke-width: 0.8"/>
      </g>
     </g>
     <g id="text_7">
      <!-- 2 -->
      <g style="fill: #aebbd0" transform="translate(450.976375 247.276953) scale(0.13 -0.13)">
       <use xlink:href="#DejaVuSans-15"/>
      </g>
     </g>
    </g>
    <g id="xtick_8">
     <g id="line2d_8">
      <g>
       <use xlink:href="#me6cf69ac50" x="520.884" y="230.4" style="fill: #aebbd0; stroke: #aebbd0; stroke-width: 0.8"/>
      </g>
     </g>
     <g id="text_8">
      <!-- 3 -->
      <g style="fill: #aebbd0" transform="translate(516.748375 247.276953) scale(0.13 -0.13)">
       <use xlink:href="#DejaVuSans-16"/>
      </g>
     </g>
    </g>
    <g id="xtick_9">
     <g id="line2d_9">
      <g>
       <use xlink:href="#me6cf69ac50" x="586.656" y="230.4" style="fill: #aebbd0; stroke: #aebbd0; stroke-width: 0.8"/>
      </g>
     </g>
     <g id="text_9">
      <!-- 4 -->
      <g style="fill: #aebbd0" transform="translate(582.520375 247.276953) scale(0.13 -0.13)">
       <use xlink:href="#DejaVuSans-17"/>
      </g>
     </g>
    </g>
    <g id="text_10">
     <!-- Noisy state $x_t$ -->
     <g style="fill: #e8edf6" transform="translate(279.238 264.28) scale(0.13 -0.13)">
      <defs>
       <path id="DejaVuSans-31" d="M 628 4666
L 1478 4666
L 3547 763
L 3547 4666
L 4159 4666
L 4159 0
L 3309 0
L 1241 3903
L 1241 0
L 628 0
L 628 4666
z
" transform="scale(0.015625)"/>
       <path id="DejaVuSans-52" d="M 1959 3097
Q 1497 3097 1228 2736
Q 959 2375 959 1747
Q 959 1119 1226 758
Q 1494 397 1959 397
Q 2419 397 2687 759
Q 2956 1122 2956 1747
Q 2956 2369 2687 2733
Q 2419 3097 1959 3097
z
M 1959 3584
Q 2709 3584 3137 3096
Q 3566 2609 3566 1747
Q 3566 888 3137 398
Q 2709 -91 1959 -91
Q 1206 -91 779 398
Q 353 888 353 1747
Q 353 2609 779 3096
Q 1206 3584 1959 3584
z
" transform="scale(0.015625)"/>
       <path id="DejaVuSans-4c" d="M 603 3500
L 1178 3500
L 1178 0
L 603 0
L 603 3500
z
M 603 4863
L 1178 4863
L 1178 4134
L 603 4134
L 603 4863
z
" transform="scale(0.015625)"/>
       <path id="DejaVuSans-56" d="M 2834 3397
L 2834 2853
Q 2591 2978 2328 3040
Q 2066 3103 1784 3103
Q 1356 3103 1142 2972
Q 928 2841 928 2578
Q 928 2378 1081 2264
Q 1234 2150 1697 2047
L 1894 2003
Q 2506 1872 2764 1633
Q 3022 1394 3022 966
Q 3022 478 2636 193
Q 2250 -91 1575 -91
Q 1294 -91 989 -36
Q 684 19 347 128
L 347 722
Q 666 556 975 473
Q 1284 391 1588 391
Q 1994 391 2212 530
Q 2431 669 2431 922
Q 2431 1156 2273 1281
Q 2116 1406 1581 1522
L 1381 1569
Q 847 1681 609 1914
Q 372 2147 372 2553
Q 372 3047 722 3315
Q 1072 3584 1716 3584
Q 2034 3584 2315 3537
Q 2597 3491 2834 3397
z
" transform="scale(0.015625)"/>
       <path id="DejaVuSans-5c" d="M 2059 -325
Q 1816 -950 1584 -1140
Q 1353 -1331 966 -1331
L 506 -1331
L 506 -850
L 844 -850
Q 1081 -850 1212 -737
Q 1344 -625 1503 -206
L 1606 56
L 191 3500
L 800 3500
L 1894 763
L 2988 3500
L 3597 3500
L 2059 -325
z
" transform="scale(0.015625)"/>
       <path id="DejaVuSans-3" transform="scale(0.015625)"/>
       <path id="DejaVuSans-57" d="M 1172 4494
L 1172 3500
L 2356 3500
L 2356 3053
L 1172 3053
L 1172 1153
Q 1172 725 1289 603
Q 1406 481 1766 481
L 2356 481
L 2356 0
L 1766 0
Q 1100 0 847 248
Q 594 497 594 1153
L 594 3053
L 172 3053
L 172 3500
L 594 3500
L 594 4494
L 1172 4494
z
" transform="scale(0.015625)"/>
       <path id="DejaVuSans-44" d="M 2194 1759
Q 1497 1759 1228 1600
Q 959 1441 959 1056
Q 959 750 1161 570
Q 1363 391 1709 391
Q 2188 391 2477 730
Q 2766 1069 2766 1631
L 2766 1759
L 2194 1759
z
M 3341 1997
L 3341 0
L 2766 0
L 2766 531
Q 2569 213 2275 61
Q 1981 -91 1556 -91
Q 1019 -91 701 211
Q 384 513 384 1019
Q 384 1609 779 1909
Q 1175 2209 1959 2209
L 2766 2209
L 2766 2266
Q 2766 2663 2505 2880
Q 2244 3097 1772 3097
Q 1472 3097 1187 3025
Q 903 2953 641 2809
L 641 3341
Q 956 3463 1253 3523
Q 1550 3584 1831 3584
Q 2591 3584 2966 3190
Q 3341 2797 3341 1997
z
" transform="scale(0.015625)"/>
       <path id="DejaVuSans-48" d="M 3597 1894
L 3597 1613
L 953 1613
Q 991 1019 1311 708
Q 1631 397 2203 397
Q 2534 397 2845 478
Q 3156 559 3463 722
L 3463 178
Q 3153 47 2828 -22
Q 2503 -91 2169 -91
Q 1331 -91 842 396
Q 353 884 353 1716
Q 353 2575 817 3079
Q 1281 3584 2069 3584
Q 2775 3584 3186 3129
Q 3597 2675 3597 1894
z
M 3022 2063
Q 3016 2534 2758 2815
Q 2500 3097 2075 3097
Q 1594 3097 1305 2825
Q 1016 2553 972 2059
L 3022 2063
z
" transform="scale(0.015625)"/>
       <path id="DejaVuSans-Oblique-5b" d="M 3841 3500
L 2234 1784
L 3219 0
L 2559 0
L 1819 1388
L 531 0
L -166 0
L 1556 1844
L 641 3500
L 1300 3500
L 1972 2234
L 3144 3500
L 3841 3500
z
" transform="scale(0.015625)"/>
       <path id="DejaVuSans-Oblique-57" d="M 2706 3500
L 2619 3053
L 1472 3053
L 1100 1153
Q 1081 1047 1072 975
Q 1063 903 1063 863
Q 1063 663 1183 572
Q 1303 481 1569 481
L 2150 481
L 2053 0
L 1503 0
Q 991 0 739 200
Q 488 400 488 806
Q 488 878 497 964
Q 506 1050 525 1153
L 897 3053
L 409 3053
L 500 3500
L 978 3500
L 1172 4494
L 1747 4494
L 1556 3500
L 2706 3500
z
" transform="scale(0.015625)"/>
      </defs>
      <use xlink:href="#DejaVuSans-31" transform="translate(0 0.015625)"/>
      <use xlink:href="#DejaVuSans-52" transform="translate(74.804688 0.015625)"/>
      <use xlink:href="#DejaVuSans-4c" transform="translate(135.986328 0.015625)"/>
      <use xlink:href="#DejaVuSans-56" transform="translate(163.769531 0.015625)"/>
      <use xlink:href="#DejaVuSans-5c" transform="translate(215.869141 0.015625)"/>
      <use xlink:href="#DejaVuSans-3" transform="translate(275.048828 0.015625)"/>
      <use xlink:href="#DejaVuSans-56" transform="translate(306.835938 0.015625)"/>
      <use xlink:href="#DejaVuSans-57" transform="translate(358.935547 0.015625)"/>
      <use xlink:href="#DejaVuSans-44" transform="translate(398.144531 0.015625)"/>
      <use xlink:href="#DejaVuSans-57" transform="translate(459.423828 0.015625)"/>
      <use xlink:href="#DejaVuSans-48" transform="translate(498.632812 0.015625)"/>
      <use xlink:href="#DejaVuSans-3" transform="translate(560.15625 0.015625)"/>
      <use xlink:href="#DejaVuSans-Oblique-5b" transform="translate(591.943359 0.015625)"/>
      <use xlink:href="#DejaVuSans-Oblique-57" transform="translate(651.123047 -14.984326) scale(0.7)"/>
     </g>
    </g>
   </g>
   <g id="matplotlib.axis_2">
    <g id="ytick_1">
     <g id="line2d_10">
      <defs>
       <path id="m1ef8a3e1b8" d="M 0 0
L -3.5 0
" style="stroke: #aebbd0; stroke-width: 0.8"/>
      </defs>
      <g>
       <use xlink:href="#m1ef8a3e1b8" x="60.48" y="201.938824" style="fill: #aebbd0; stroke: #aebbd0; stroke-width: 0.8"/>
      </g>
     </g>
     <g id="text_11">
      <!-- 0.0 -->
      <g style="fill: #aebbd0" transform="translate(32.805938 206.8773) scale(0.13 -0.13)">
       <defs>
        <path id="DejaVuSans-11" d="M 684 794
L 1344 794
L 1344 0
L 684 0
L 684 794
z
" transform="scale(0.015625)"/>
       </defs>
       <use xlink:href="#DejaVuSans-13"/>
       <use xlink:href="#DejaVuSans-11" transform="translate(63.625 0)"/>
       <use xlink:href="#DejaVuSans-13" transform="translate(95.40625 0)"/>
      </g>
     </g>
    </g>
    <g id="ytick_2">
     <g id="line2d_11">
      <g>
       <use xlink:href="#m1ef8a3e1b8" x="60.48" y="130.785882" style="fill: #aebbd0; stroke: #aebbd0; stroke-width: 0.8"/>
      </g>
     </g>
     <g id="text_12">
      <!-- 0.2 -->
      <g style="fill: #aebbd0" transform="translate(32.805938 135.724359) scale(0.13 -0.13)">
       <use xlink:href="#DejaVuSans-13"/>
       <use xlink:href="#DejaVuSans-11" transform="translate(63.625 0)"/>
       <use xlink:href="#DejaVuSans-15" transform="translate(95.40625 0)"/>
      </g>
     </g>
    </g>
    <g id="ytick_3">
     <g id="line2d_12">
      <g>
       <use xlink:href="#m1ef8a3e1b8" x="60.48" y="59.632941" style="fill: #aebbd0; stroke: #aebbd0; stroke-width: 0.8"/>
      </g>
     </g>
     <g id="text_13">
      <!-- 0.4 -->
      <g style="fill: #aebbd0" transform="translate(32.805938 64.571418) scale(0.13 -0.13)">
       <use xlink:href="#DejaVuSans-13"/>
       <use xlink:href="#DejaVuSans-11" transform="translate(63.625 0)"/>
       <use xlink:href="#DejaVuSans-17" transform="translate(95.40625 0)"/>
      </g>
     </g>
    </g>
    <g id="text_14">
     <!-- Density -->
     <g style="fill: #e8edf6" transform="translate(25.682891 164.391172) rotate(-90) scale(0.13 -0.13)">
      <defs>
       <path id="DejaVuSans-27" d="M 1259 4147
L 1259 519
L 2022 519
Q 2988 519 3436 956
Q 3884 1394 3884 2338
Q 3884 3275 3436 3711
Q 2988 4147 2022 4147
L 1259 4147
z
M 628 4666
L 1925 4666
Q 3281 4666 3915 4102
Q 4550 3538 4550 2338
Q 4550 1131 3912 565
Q 3275 0 1925 0
L 628 0
L 628 4666
z
" transform="scale(0.015625)"/>
       <path id="DejaVuSans-51" d="M 3513 2113
L 3513 0
L 2938 0
L 2938 2094
Q 2938 2591 2744 2837
Q 2550 3084 2163 3084
Q 1697 3084 1428 2787
Q 1159 2491 1159 1978
L 1159 0
L 581 0
L 581 3500
L 1159 3500
L 1159 2956
Q 1366 3272 1645 3428
Q 1925 3584 2291 3584
Q 2894 3584 3203 3211
Q 3513 2838 3513 2113
z
" transform="scale(0.015625)"/>
      </defs>
      <use xlink:href="#DejaVuSans-27"/>
      <use xlink:href="#DejaVuSans-48" transform="translate(77 0)"/>
      <use xlink:href="#DejaVuSans-51" transform="translate(138.53125 0)"/>
      <use xlink:href="#DejaVuSans-56" transform="translate(201.90625 0)"/>
      <use xlink:href="#DejaVuSans-4c" transform="translate(254 0)"/>
      <use xlink:href="#DejaVuSans-57" transform="translate(281.78125 0)"/>
      <use xlink:href="#DejaVuSans-5c" transform="translate(320.984375 0)"/>
     </g>
    </g>
   </g>
   <g id="line2d_13">
    <path d="M 60.48 200.362128
L 68.392421 199.693169
L 76.304842 198.786339
L 82.898526 197.802541
L 89.492211 196.566
L 94.767158 195.363247
L 100.042105 193.942843
L 105.317053 192.277956
L 110.592 190.34125
L 115.866947 188.105559
L 119.823158 186.216755
L 123.779368 184.134587
L 127.735579 181.849481
L 131.691789 179.352956
L 135.648 176.637891
L 139.604211 173.698805
L 143.560421 170.532138
L 147.516632 167.136524
L 151.472842 163.513064
L 156.747789 158.334364
L 162.022737 152.774969
L 167.297684 146.862176
L 172.572632 140.63386
L 179.166316 132.47998
L 187.078737 122.314752
L 205.541053 98.422753
L 210.816 91.96647
L 216.090947 85.856571
L 220.047158 81.561588
L 224.003368 77.558524
L 227.959579 73.886482
L 231.915789 70.58215
L 235.872 67.679191
L 238.509474 65.981883
L 241.146947 64.484327
L 243.784421 63.193562
L 246.421895 62.115697
L 249.059368 61.255862
L 251.696842 60.61817
L 254.334316 60.205683
L 256.971789 60.020384
L 259.609263 60.063167
L 262.246737 60.333825
L 264.884211 60.831055
L 267.521684 61.552466
L 270.159158 62.494599
L 272.796632 63.652957
L 275.434105 65.022036
L 278.071579 66.595372
L 280.709053 68.365591
L 284.665263 71.371862
L 288.621474 74.771406
L 292.577684 78.529748
L 296.533895 82.609538
L 300.490105 86.971168
L 305.765053 93.153678
L 312.358737 101.330541
L 321.589895 113.265954
L 336.096 132.063381
L 342.689684 140.235168
L 347.964632 146.481699
L 353.239579 152.415434
L 358.514526 157.997823
L 363.789474 163.200923
L 369.064421 168.006876
L 373.020632 171.345255
L 376.976842 174.454809
L 380.933053 177.337476
L 384.889263 179.997323
L 388.845474 182.440268
L 392.801684 184.673797
L 396.757895 186.70669
L 400.714105 188.548751
L 405.989053 190.726346
L 411.264 192.610001
L 416.538947 194.226972
L 421.813895 195.604547
L 427.088842 196.769402
L 433.682526 197.965126
L 440.276211 198.914815
L 448.188632 199.788582
L 456.101053 200.431847
L 465.332211 200.96147
L 477.200842 201.394702
L 491.706947 201.684368
L 512.806737 201.861595
L 553.687579 201.933105
L 586.656 201.938295
L 586.656 201.938295
" clip-path="url(#p71b8916c39)" style="fill: none; stroke: #65dfc0; stroke-width: 2.8; stroke-linecap: square"/>
   </g>
   <g id="line2d_14">
    <path d="M 60.48 201.938295
L 140.922947 201.825478
L 162.022737 201.577189
L 176.528842 201.182425
L 187.078737 200.684068
L 196.309895 200.025778
L 204.222316 199.235387
L 210.816 198.372064
L 217.409684 197.280101
L 222.684632 196.211936
L 227.959579 194.943996
L 233.234526 193.450109
L 238.509474 191.703221
L 243.784421 189.675973
L 249.059368 187.341405
L 253.015579 185.373256
L 256.971789 183.207637
L 260.928 180.835399
L 264.884211 178.248593
L 268.840421 175.440748
L 272.796632 172.407149
L 276.752842 169.145118
L 280.709053 165.654284
L 285.984 160.648129
L 291.258947 155.252537
L 296.533895 149.490329
L 301.808842 143.394701
L 308.402526 135.374294
L 316.314947 125.30987
L 338.733474 96.37405
L 344.008421 90.015186
L 349.283368 84.034108
L 353.239579 79.855877
L 357.195789 75.986111
L 361.152 72.462983
L 365.108211 69.321992
L 367.745684 67.456366
L 370.383158 65.783612
L 373.020632 64.311538
L 375.658105 63.047071
L 378.295579 61.996199
L 380.933053 61.163929
L 383.570526 60.554242
L 386.208 60.170067
L 388.845474 60.013252
L 391.482947 60.084553
L 394.120421 60.383627
L 396.757895 60.909032
L 399.395368 61.658244
L 402.032842 62.627673
L 404.670316 63.812692
L 407.307789 65.207675
L 409.945263 66.806043
L 412.582737 68.60031
L 416.538947 71.64059
L 420.495158 75.071395
L 424.451368 78.857986
L 428.407579 82.962802
L 432.363789 87.346076
L 437.638737 93.552005
L 444.232421 101.749287
L 453.463579 113.697125
L 466.650947 130.809257
L 473.244632 139.03295
L 478.519579 145.33296
L 483.794526 151.328607
L 489.069474 156.979316
L 494.344421 162.255187
L 499.619368 167.136524
L 503.575579 170.532138
L 507.531789 173.698805
L 511.488 176.637891
L 515.444211 179.352956
L 519.400421 181.849481
L 523.356632 184.134587
L 527.312842 186.216755
L 531.269053 188.105559
L 536.544 190.34125
L 541.818947 192.277956
L 547.093895 193.942843
L 552.368842 195.363247
L 557.643789 196.566
L 564.237474 197.802541
L 570.831158 198.786339
L 577.424842 199.56017
L 585.337263 200.264716
L 586.656 200.362128
L 586.656 200.362128
" clip-path="url(#p71b8916c39)" style="fill: none; stroke: #89b4ff; stroke-width: 2.8; stroke-linecap: square"/>
   </g>
   <g id="line2d_15">
    <path d="M 60.48 201.891211
L 88.173474 201.704042
L 103.998316 201.399233
L 115.866947 200.969172
L 125.098105 200.443196
L 133.010526 199.804132
L 140.922947 198.935779
L 147.516632 197.991682
L 154.110316 196.802659
L 159.385263 195.644033
L 164.660211 194.273504
L 169.935158 192.664425
L 175.210105 190.789518
L 180.485053 188.621516
L 184.441263 186.787181
L 188.397474 184.762442
L 192.353684 182.537456
L 196.309895 180.103396
L 200.266105 177.452716
L 204.222316 174.579429
L 208.178526 171.479383
L 212.134737 168.150546
L 216.090947 164.593272
L 221.365895 159.500484
L 226.640842 154.022393
L 231.915789 148.184042
L 237.190737 142.020962
L 243.784421 133.93207
L 251.696842 123.814643
L 271.477895 98.216753
L 276.752842 91.769769
L 282.027789 85.672313
L 285.984 81.388687
L 289.940211 77.39865
L 293.896421 73.741216
L 297.852632 70.452958
L 301.808842 67.567402
L 304.446316 65.882356
L 307.083789 64.397528
L 309.721263 63.1199
L 312.358737 62.055521
L 314.996211 61.209461
L 317.633684 60.585766
L 320.271158 60.187431
L 322.908632 60.016372
L 325.546105 60.073415
L 328.183579 60.358283
L 330.821053 60.869606
L 333.458526 61.604924
L 336.096 62.560714
L 338.733474 63.732413
L 341.370947 65.114457
L 344.008421 66.700323
L 346.645895 68.482583
L 350.602105 71.505886
L 354.558316 74.92109
L 358.514526 78.693589
L 362.470737 82.785927
L 366.426947 87.158414
L 371.701895 93.352683
L 378.295579 101.539817
L 387.526737 113.481524
L 400.714105 130.599627
L 407.307789 138.831702
L 413.901474 146.672092
L 419.176421 152.595374
L 424.451368 158.16628
L 429.726316 163.357188
L 435.001263 168.150546
L 438.957474 171.479383
L 442.913684 174.579429
L 446.869895 177.452716
L 450.826105 180.103396
L 454.782316 182.537456
L 458.738526 184.762442
L 462.694737 186.787181
L 467.969684 189.192464
L 473.244632 191.284665
L 478.519579 193.090546
L 483.794526 194.637444
L 489.069474 195.952535
L 494.344421 197.062226
L 500.938105 198.198685
L 507.531789 199.098984
L 515.444211 199.925008
L 523.356632 200.531285
L 532.587789 201.028846
L 544.456421 201.43427
L 560.281263 201.720343
L 582.699789 201.87837
L 586.656 201.891211
L 586.656 201.891211
" clip-path="url(#p71b8916c39)" style="fill: none; stroke-dasharray: 7.4,3.2; stroke-dashoffset: 0; stroke: #ffbd7a; stroke-width: 2"/>
   </g>
   <g id="patch_3">
    <path d="M 60.48 230.4
L 60.48 48.96
" style="fill: none; stroke: #aebbd0; stroke-width: 0.8; stroke-linejoin: miter; stroke-linecap: square"/>
   </g>
   <g id="patch_4">
    <path d="M 60.48 230.4
L 586.656 230.4
" style="fill: none; stroke: #aebbd0; stroke-width: 0.8; stroke-linejoin: miter; stroke-linecap: square"/>
   </g>
   <g id="patch_5">
    <path d="M 308.410412 219.015529
Q 277.52434 219.015529 248.650729 219.015529
" style="fill: none; stroke: #ffbd7a; stroke-width: 1.8; stroke-linecap: round"/>
    <path d="M 253.850729 221.615529
L 248.650729 219.015529
L 253.850729 216.415529
" style="fill: none; stroke: #ffbd7a; stroke-width: 1.8; stroke-linecap: round"/>
   </g>
   <g id="patch_6">
    <path d="M 403.779812 219.015529
Q 372.89374 219.015529 344.020129 219.015529
" style="fill: none; stroke: #ffbd7a; stroke-width: 1.8; stroke-linecap: round"/>
    <path d="M 349.220129 221.615529
L 344.020129 219.015529
L 349.220129 216.415529
" style="fill: none; stroke: #ffbd7a; stroke-width: 1.8; stroke-linecap: round"/>
   </g>
   <g id="patch_7">
    <path d="M 499.149212 219.015529
Q 468.26314 219.015529 439.389529 219.015529
" style="fill: none; stroke: #ffbd7a; stroke-width: 1.8; stroke-linecap: round"/>
    <path d="M 444.589529 221.615529
L 439.389529 219.015529
L 444.589529 216.415529
" style="fill: none; stroke: #ffbd7a; stroke-width: 1.8; stroke-linecap: round"/>
   </g>
   <g id="text_15">
    <!-- $-\,(s_q-s_p)$ -->
    <g style="fill: #ffbd7a" transform="translate(86.7888 222.217412) scale(0.14 -0.14)">
     <defs>
      <path id="DejaVuSans-b" d="M 1984 4856
Q 1566 4138 1362 3434
Q 1159 2731 1159 2009
Q 1159 1288 1364 580
Q 1569 -128 1984 -844
L 1484 -844
Q 1016 -109 783 600
Q 550 1309 550 2009
Q 550 2706 781 3412
Q 1013 4119 1484 4856
L 1984 4856
z
" transform="scale(0.015625)"/>
      <path id="DejaVuSans-Oblique-56" d="M 3200 3397
L 3091 2853
Q 2863 2978 2609 3040
Q 2356 3103 2088 3103
Q 1634 3103 1373 2948
Q 1113 2794 1113 2528
Q 1113 2219 1719 2053
Q 1766 2041 1788 2034
L 1972 1978
Q 2547 1819 2739 1644
Q 2931 1469 2931 1166
Q 2931 609 2489 259
Q 2047 -91 1331 -91
Q 1053 -91 747 -37
Q 441 16 72 128
L 184 722
Q 500 559 806 475
Q 1113 391 1394 391
Q 1816 391 2080 572
Q 2344 753 2344 1031
Q 2344 1331 1650 1516
L 1591 1531
L 1394 1581
Q 956 1697 753 1886
Q 550 2075 550 2369
Q 550 2928 970 3256
Q 1391 3584 2113 3584
Q 2397 3584 2667 3537
Q 2938 3491 3200 3397
z
" transform="scale(0.015625)"/>
      <path id="DejaVuSans-Oblique-54" d="M 2669 525
Q 2438 222 2123 65
Q 1809 -91 1428 -91
Q 897 -91 595 267
Q 294 625 294 1253
Q 294 1759 480 2231
Q 666 2703 1013 3078
Q 1238 3322 1530 3453
Q 1822 3584 2144 3584
Q 2531 3584 2781 3431
Q 3031 3278 3144 2969
L 3244 3494
L 3822 3494
L 2888 -1319
L 2309 -1319
L 2669 525
z
M 891 1338
Q 891 875 1084 633
Q 1278 391 1644 391
Q 2188 391 2572 911
Q 2956 1431 2956 2175
Q 2956 2625 2757 2864
Q 2559 3103 2188 3103
Q 1916 3103 1684 2976
Q 1453 2850 1281 2606
Q 1100 2350 995 2006
Q 891 1663 891 1338
z
" transform="scale(0.015625)"/>
      <path id="DejaVuSans-Oblique-53" d="M 3175 2156
Q 3175 2616 2975 2859
Q 2775 3103 2400 3103
Q 2144 3103 1911 2972
Q 1678 2841 1497 2591
Q 1319 2344 1212 1994
Q 1106 1644 1106 1300
Q 1106 863 1306 627
Q 1506 391 1875 391
Q 2147 391 2380 519
Q 2613 647 2778 891
Q 2956 1147 3065 1494
Q 3175 1841 3175 2156
z
M 1394 2969
Q 1625 3272 1939 3428
Q 2253 3584 2638 3584
Q 3175 3584 3472 3232
Q 3769 2881 3769 2247
Q 3769 1728 3584 1258
Q 3400 788 3053 416
Q 2822 169 2531 39
Q 2241 -91 1919 -91
Q 1547 -91 1294 64
Q 1041 219 916 525
L 556 -1331
L -19 -1331
L 922 3500
L 1497 3500
L 1394 2969
z
" transform="scale(0.015625)"/>
      <path id="DejaVuSans-c" d="M 513 4856
L 1013 4856
Q 1481 4119 1714 3412
Q 1947 2706 1947 2009
Q 1947 1309 1714 600
Q 1481 -109 1013 -844
L 513 -844
Q 928 -128 1133 580
Q 1338 1288 1338 2009
Q 1338 2731 1133 3434
Q 928 4138 513 4856
z
" transform="scale(0.015625)"/>
     </defs>
     <use xlink:href="#DejaVuSans-c9c" transform="translate(0 0.125)"/>
     <use xlink:href="#DejaVuSans-b" transform="translate(100.024739 0.125)"/>
     <use xlink:href="#DejaVuSans-Oblique-56" transform="translate(139.038411 0.125)"/>
     <use xlink:href="#DejaVuSans-Oblique-54" transform="translate(191.13802 -14.874951) scale(0.7)"/>
     <use xlink:href="#DejaVuSans-c9c" transform="translate(257.788411 0.125)"/>
     <use xlink:href="#DejaVuSans-Oblique-56" transform="translate(361.059895 0.125)"/>
     <use xlink:href="#DejaVuSans-Oblique-53" transform="translate(413.159504 -14.874951) scale(0.7)"/>
     <use xlink:href="#DejaVuSans-c" transform="translate(460.327473 0.125)"/>
    </g>
   </g>
   <g id="PathCollection_1">
    <defs>
     <path id="me78f321401" d="M 0 2.44949
C 0.649612 2.44949 1.272706 2.191396 1.732051 1.732051
C 2.191396 1.272706 2.44949 0.649612 2.44949 0
C 2.44949 -0.649612 2.191396 -1.272706 1.732051 -1.732051
C 1.272706 -2.191396 0.649612 -2.44949 0 -2.44949
C -0.649612 -2.44949 -1.272706 -2.191396 -1.732051 -1.732051
C -2.191396 -1.272706 -2.44949 -0.649612 -2.44949 0
C -2.44949 0.649612 -2.191396 1.272706 -1.732051 1.732051
C -1.272706 2.191396 -0.649612 2.44949 0 2.44949
z
" style="stroke: #89b4ff"/>
    </defs>
    <g clip-path="url(#p71b8916c39)">
     <use xlink:href="#me78f321401" x="310.4136" y="219.015529" style="fill: #89b4ff; stroke: #89b4ff"/>
    </g>
   </g>
   <g id="PathCollection_2">
    <g clip-path="url(#p71b8916c39)">
     <use xlink:href="#me78f321401" x="405.783" y="219.015529" style="fill: #89b4ff; stroke: #89b4ff"/>
    </g>
   </g>
   <g id="PathCollection_3">
    <g clip-path="url(#p71b8916c39)">
     <use xlink:href="#me78f321401" x="501.1524" y="219.015529" style="fill: #89b4ff; stroke: #89b4ff"/>
    </g>
   </g>
   <g id="legend_1">
    <g id="line2d_16">
     <path d="M 191.398313 25.633988
L 200.398313 25.633988
L 209.398313 25.633988
" style="fill: none; stroke: #65dfc0; stroke-width: 2.8; stroke-linecap: square"/>
    </g>
    <g id="text_16">
     <!-- Target $p_t$ -->
     <g style="fill: #e8edf6" transform="translate(215.398313 29.833988) scale(0.12 -0.12)">
      <defs>
       <path id="DejaVuSans-37" d="M -19 4666
L 3928 4666
L 3928 4134
L 2272 4134
L 2272 0
L 1638 0
L 1638 4134
L -19 4134
L -19 4666
z
" transform="scale(0.015625)"/>
       <path id="DejaVuSans-55" d="M 2631 2963
Q 2534 3019 2420 3045
Q 2306 3072 2169 3072
Q 1681 3072 1420 2755
Q 1159 2438 1159 1844
L 1159 0
L 581 0
L 581 3500
L 1159 3500
L 1159 2956
Q 1341 3275 1631 3429
Q 1922 3584 2338 3584
Q 2397 3584 2469 3576
Q 2541 3569 2628 3553
L 2631 2963
z
" transform="scale(0.015625)"/>
       <path id="DejaVuSans-4a" d="M 2906 1791
Q 2906 2416 2648 2759
Q 2391 3103 1925 3103
Q 1463 3103 1205 2759
Q 947 2416 947 1791
Q 947 1169 1205 825
Q 1463 481 1925 481
Q 2391 481 2648 825
Q 2906 1169 2906 1791
z
M 3481 434
Q 3481 -459 3084 -895
Q 2688 -1331 1869 -1331
Q 1566 -1331 1297 -1286
Q 1028 -1241 775 -1147
L 775 -588
Q 1028 -725 1275 -790
Q 1522 -856 1778 -856
Q 2344 -856 2625 -561
Q 2906 -266 2906 331
L 2906 616
Q 2728 306 2450 153
Q 2172 0 1784 0
Q 1141 0 747 490
Q 353 981 353 1791
Q 353 2603 747 3093
Q 1141 3584 1784 3584
Q 2172 3584 2450 3431
Q 2728 3278 2906 2969
L 2906 3500
L 3481 3500
L 3481 434
z
" transform="scale(0.015625)"/>
      </defs>
      <use xlink:href="#DejaVuSans-37" transform="translate(0 0.09375)"/>
      <use xlink:href="#DejaVuSans-44" transform="translate(44.083984 0.09375)"/>
      <use xlink:href="#DejaVuSans-55" transform="translate(105.363281 0.09375)"/>
      <use xlink:href="#DejaVuSans-4a" transform="translate(144.476562 0.09375)"/>
      <use xlink:href="#DejaVuSans-48" transform="translate(207.953125 0.09375)"/>
      <use xlink:href="#DejaVuSans-57" transform="translate(269.476562 0.09375)"/>
      <use xlink:href="#DejaVuSans-3" transform="translate(308.685547 0.09375)"/>
      <use xlink:href="#DejaVuSans-Oblique-53" transform="translate(340.472656 0.09375)"/>
      <use xlink:href="#DejaVuSans-Oblique-57" transform="translate(403.949219 -14.906201) scale(0.7)"/>
     </g>
    </g>
    <g id="line2d_17">
     <path d="M 277.198313 25.633988
L 286.198313 25.633988
L 295.198313 25.633988
" style="fill: none; stroke: #89b4ff; stroke-width: 2.8; stroke-linecap: square"/>
    </g>
    <g id="text_17">
     <!-- Student $q_t$ -->
     <g style="fill: #e8edf6" transform="translate(301.198313 29.833988) scale(0.12 -0.12)">
      <defs>
       <path id="DejaVuSans-36" d="M 3425 4513
L 3425 3897
Q 3066 4069 2747 4153
Q 2428 4238 2131 4238
Q 1616 4238 1336 4038
Q 1056 3838 1056 3469
Q 1056 3159 1242 3001
Q 1428 2844 1947 2747
L 2328 2669
Q 3034 2534 3370 2195
Q 3706 1856 3706 1288
Q 3706 609 3251 259
Q 2797 -91 1919 -91
Q 1588 -91 1214 -16
Q 841 59 441 206
L 441 856
Q 825 641 1194 531
Q 1563 422 1919 422
Q 2459 422 2753 634
Q 3047 847 3047 1241
Q 3047 1584 2836 1778
Q 2625 1972 2144 2069
L 1759 2144
Q 1053 2284 737 2584
Q 422 2884 422 3419
Q 422 4038 858 4394
Q 1294 4750 2059 4750
Q 2388 4750 2728 4690
Q 3069 4631 3425 4513
z
" transform="scale(0.015625)"/>
       <path id="DejaVuSans-58" d="M 544 1381
L 544 3500
L 1119 3500
L 1119 1403
Q 1119 906 1312 657
Q 1506 409 1894 409
Q 2359 409 2629 706
Q 2900 1003 2900 1516
L 2900 3500
L 3475 3500
L 3475 0
L 2900 0
L 2900 538
Q 2691 219 2414 64
Q 2138 -91 1772 -91
Q 1169 -91 856 284
Q 544 659 544 1381
z
M 1991 3584
L 1991 3584
z
" transform="scale(0.015625)"/>
       <path id="DejaVuSans-47" d="M 2906 2969
L 2906 4863
L 3481 4863
L 3481 0
L 2906 0
L 2906 525
Q 2725 213 2448 61
Q 2172 -91 1784 -91
Q 1150 -91 751 415
Q 353 922 353 1747
Q 353 2572 751 3078
Q 1150 3584 1784 3584
Q 2172 3584 2448 3432
Q 2725 3281 2906 2969
z
M 947 1747
Q 947 1113 1208 752
Q 1469 391 1925 391
Q 2381 391 2643 752
Q 2906 1113 2906 1747
Q 2906 2381 2643 2742
Q 2381 3103 1925 3103
Q 1469 3103 1208 2742
Q 947 2381 947 1747
z
" transform="scale(0.015625)"/>
      </defs>
      <use xlink:href="#DejaVuSans-36" transform="translate(0 0.015625)"/>
      <use xlink:href="#DejaVuSans-57" transform="translate(63.476562 0.015625)"/>
      <use xlink:href="#DejaVuSans-58" transform="translate(102.685547 0.015625)"/>
      <use xlink:href="#DejaVuSans-47" transform="translate(166.064453 0.015625)"/>
      <use xlink:href="#DejaVuSans-48" transform="translate(229.541016 0.015625)"/>
      <use xlink:href="#DejaVuSans-51" transform="translate(291.064453 0.015625)"/>
      <use xlink:href="#DejaVuSans-57" transform="translate(354.443359 0.015625)"/>
      <use xlink:href="#DejaVuSans-3" transform="translate(393.652344 0.015625)"/>
      <use xlink:href="#DejaVuSans-Oblique-54" transform="translate(425.439453 0.015625)"/>
      <use xlink:href="#DejaVuSans-Oblique-57" transform="translate(488.916016 -14.984326) scale(0.7)"/>
     </g>
    </g>
    <g id="line2d_18">
     <path d="M 373.198313 25.633988
L 382.198313 25.633988
L 391.198313 25.633988
" style="fill: none; stroke-dasharray: 7.4,3.2; stroke-dashoffset: 0; stroke: #ffbd7a; stroke-width: 2"/>
    </g>
    <g id="text_18">
     <!-- After shift -->
     <g style="fill: #e8edf6" transform="translate(397.198313 29.833988) scale(0.12 -0.12)">
      <defs>
       <path id="DejaVuSans-24" d="M 2188 4044
L 1331 1722
L 3047 1722
L 2188 4044
z
M 1831 4666
L 2547 4666
L 4325 0
L 3669 0
L 3244 1197
L 1141 1197
L 716 0
L 50 0
L 1831 4666
z
" transform="scale(0.015625)"/>
       <path id="DejaVuSans-49" d="M 2375 4863
L 2375 4384
L 1825 4384
Q 1516 4384 1395 4259
Q 1275 4134 1275 3809
L 1275 3500
L 2222 3500
L 2222 3053
L 1275 3053
L 1275 0
L 697 0
L 697 3053
L 147 3053
L 147 3500
L 697 3500
L 697 3744
Q 697 4328 969 4595
Q 1241 4863 1831 4863
L 2375 4863
z
" transform="scale(0.015625)"/>
       <path id="DejaVuSans-4b" d="M 3513 2113
L 3513 0
L 2938 0
L 2938 2094
Q 2938 2591 2744 2837
Q 2550 3084 2163 3084
Q 1697 3084 1428 2787
Q 1159 2491 1159 1978
L 1159 0
L 581 0
L 581 4863
L 1159 4863
L 1159 2956
Q 1366 3272 1645 3428
Q 1925 3584 2291 3584
Q 2894 3584 3203 3211
Q 3513 2838 3513 2113
z
" transform="scale(0.015625)"/>
      </defs>
      <use xlink:href="#DejaVuSans-24"/>
      <use xlink:href="#DejaVuSans-49" transform="translate(64.84375 0)"/>
      <use xlink:href="#DejaVuSans-57" transform="translate(98.296875 0)"/>
      <use xlink:href="#DejaVuSans-48" transform="translate(137.5 0)"/>
      <use xlink:href="#DejaVuSans-55" transform="translate(199.03125 0)"/>
      <use xlink:href="#DejaVuSans-3" transform="translate(240.140625 0)"/>
      <use xlink:href="#DejaVuSans-56" transform="translate(271.921875 0)"/>
      <use xlink:href="#DejaVuSans-4b" transform="translate(324.015625 0)"/>
      <use xlink:href="#DejaVuSans-4c" transform="translate(387.390625 0)"/>
      <use xlink:href="#DejaVuSans-49" transform="translate(415.171875 0)"/>
      <use xlink:href="#DejaVuSans-57" transform="translate(448.625 0)"/>
     </g>
    </g>
   </g>
  </g>
 </g>
 <defs>
  <clipPath id="p71b8916c39">
   <rect x="60.48" y="48.96" width="526.176" height="181.44"/>
  </clipPath>
 </defs>
</svg>
